<svg width="526" height="230" xmlns="http://www.w3.org/2000/svg" xmlns:xlink="http://www.w3.org/1999/xlink" overflow="hidden"><defs><clipPath id="clip0"><path d="M0 0 526 0 526 230 0 230Z" fill-rule="evenodd" clip-rule="evenodd"/></clipPath></defs><g clip-path="url(#clip0)"><rect x="0" y="0" width="525.239" height="230" fill="#FFFFFF" transform="scale(1.00145 1)"/><rect x="0" y="0" width="525.239" height="230" fill="#F2F2F2" transform="scale(1.00145 1)"/><path d="M0 154.748 0 135.497 7.89167 135.497 15.7278 135.497 15.7278 108.429 15.7278 81.3084 40.292 81.3084 64.8562 81.3084 64.8562 108.429 64.8562 135.497 74.5818 135.497 84.3075 135.497 84.3075 128.572 84.3075 121.595 92.8661 121.333 101.425 121.071 101.647 95.9439 101.925 70.817 106.093 70.817 110.205 70.817 110.205 96.1538 110.205 121.543 117.653 121.543 125.044 121.543 125.044 117.137 125.044 112.783 137.548 112.783 150.053 112.783 150.053 98.3569 150.053 83.9313 157.945 83.9313 165.781 83.9313 165.781 61.2174 165.781 38.451 169.949 38.451 174.117 38.451 174.117 61.2174 174.117 83.9313 187.121 83.9313 200.07 83.9313 200.07 98.3569 200.07 112.783 225.079 112.783 250.088 112.783 250.088 124.166 250.088 135.497 260.258 135.497 270.484 135.497 270.484 100.98 270.484 66.4631 322.336 66.4631 374.187 66.4631 374.187 97.9373 374.187 129.412 377.911 129.412 381.634 129.412 381.634 83.5641 381.634 37.7166 384.635 37.4543 387.637 37.1396 387.914 25.1269 388.137 13.1143 393.194 13.1143 398.307 13.1143 398.307 6.55713 398.307 0 411.256 0 424.205 0 424.205 6.55713 424.205 13.1143 429.763 13.1143 435.32 13.1143 435.32 25.3368 435.32 37.6117 438.099 37.6117 440.878 37.6117 440.878 81.3084 440.878 125.005 446.935 125.005 452.937 125.005 452.937 116.717 452.937 108.429 464.497 108.429 476.112 108.429 476.112 116.717 476.112 125.005 480.725 125.005 485.338 125.005 485.338 111.052 485.338 97.0455 493.229 97.0455 501.121 97.0455 501.121 111.052 501.121 125.005 506.178 125.005 511.291 125.005 511.291 144.257 511.291 163.509 517.794 163.509 524.24 163.509 524.24 168.754 524.24 174 262.148 174 0 174 0 154.748ZM401.086 94.8423 401.086 59.4338 395.973 59.4338 390.86 59.4338 390.86 94.8423 390.86 130.251 395.973 130.251 401.086 130.251 401.086 94.8423ZM415.869 94.8423 415.869 59.4338 411.256 59.4338 406.643 59.4338 406.643 94.8423 406.643 130.251 411.256 130.251 415.869 130.251 415.869 94.8423ZM431.652 94.8423 431.652 59.4338 426.984 59.4338 422.371 59.4338 422.371 94.8423 422.371 130.251 426.984 130.251 431.652 130.251 431.652 94.8423ZM301.94 115.825 301.94 109.268 294.993 109.268 288.046 109.268 288.046 115.825 288.046 122.382 294.993 122.382 301.94 122.382 301.94 115.825ZM329.727 115.825 329.727 109.268 322.78 109.268 315.833 109.268 315.833 115.825 315.833 122.382 322.78 122.382 329.727 122.382 329.727 115.825ZM357.515 115.825 357.515 109.268 350.568 109.268 343.621 109.268 343.621 115.825 343.621 122.382 350.568 122.382 357.515 122.382 357.515 115.825ZM301.94 90.4884 301.94 83.9313 294.993 83.9313 288.046 83.9313 288.046 90.4884 288.046 97.0455 294.993 97.0455 301.94 97.0455 301.94 90.4884ZM329.727 90.4884 329.727 83.9313 322.78 83.9313 315.833 83.9313 315.833 90.4884 315.833 97.0455 322.78 97.0455 329.727 97.0455 329.727 90.4884ZM357.515 90.4884 357.515 83.9313 350.568 83.9313 343.621 83.9313 343.621 90.4884 343.621 97.0455 350.568 97.0455 357.515 97.0455 357.515 90.4884ZM279.71 51.1456 279.71 44.5885 307.053 44.5885 334.396 44.5885 334.396 51.1456 334.396 57.7027 307.053 57.7027 279.71 57.7027 279.71 51.1456ZM342.732 41.546 342.732 25.3368 354.291 25.3368 365.851 25.3368 365.851 41.546 365.851 57.7027 354.291 57.7027 342.732 57.7027 342.732 41.546Z" fill="#E5E5E5" fill-rule="evenodd" transform="matrix(1.00145 0 -0 1 0 31)"/><path d="M0 0 525.239 0.000104835" stroke="#7C7C7B" stroke-width="1.99711" stroke-miterlimit="8" fill="none" fill-rule="evenodd" transform="matrix(1.00145 0 -0 1 0 207)"/><path d="M0.102826 0.117076 71.8958 0C71.5462 1.7415 71.6079 2.94152 69.0784 2.97079L2.7146 3.00006C1.02826 2.73664 0 1.99028 0.102826 0.117076Z" fill="#6A4742" fill-rule="evenodd" transform="matrix(1.00145 0 -0 1 184 132)"/><path d="M0.0821666 50 0 14.5538 35.9479 0 71.8958 14.6923 71.7931 49.8769 0.0821666 50Z" fill="#D68D87" fill-rule="evenodd" transform="matrix(1.00145 0 -0 1 184 82)"/><rect x="0" y="0" width="19.9711" height="27.9999" fill="#FFFFFF" transform="matrix(1.00145 0 -0 1 196 104)"/><rect x="0" y="0" width="7.98842" height="10.0001" fill="#6A4742" transform="matrix(1.00145 0 -0 1 197 105)"/><rect x="0" y="0" width="7.98842" height="10.0001" fill="#6A4742" transform="matrix(1.00145 0 -0 1 206 105)"/><path d="M1.99711 0.504515C1.99711 0.774791 1.54731 1.00002 1.00755 1.00002 0.467791 1.00002 0.0179919 0.7838 0 0.513524 0 0.243248 0.431807 0.0180184 0.971565 0.00900919 1.52932 0 1.97911 0.216221 1.99711 0.486496" fill="#6A4742" fill-rule="evenodd" transform="matrix(1.00145 0 -0 1 213 118)"/><rect x="0" y="0" width="19.9711" height="14" fill="#FFFFFF" transform="matrix(1.00145 0 -0 1 226 104)"/><rect x="0" y="0" width="21.9682" height="2.00004" fill="#FFFFFF" transform="matrix(1.00145 0 -0 1 225 118)"/><rect x="0" y="0" width="7.98842" height="6.99993" fill="#6A4742" transform="matrix(1.00145 0 -0 1 227 104)"/><rect x="0" y="0" width="7.98842" height="6.99993" fill="#6A4742" transform="matrix(1.00145 0 -0 1 237 104)"/><rect x="0" y="0" width="7.98842" height="7.00004" fill="#6A4742" transform="matrix(1.00145 0 -0 1 237 111)"/><rect x="0" y="0" width="7.98842" height="7.00004" fill="#6A4742" transform="matrix(1.00145 0 -0 1 227 111)"/><path d="M71.8958 14.4311 71.8342 17 35.7733 2.34223 0.102679 16.9245 0 14.2951 35.9582 0 71.8958 14.4311Z" fill="#D0D0D0" fill-rule="evenodd" transform="matrix(1.00145 0 -0 1 184 82)"/><path d="M74.4421 20.0218 38.4648 4.95417 0 21 0 16.1721 38.4648 0 76.8063 16.1089 76.8886 20.9211 74.4421 20.0218Z" fill="#6A4742" fill-rule="evenodd" transform="matrix(1.00145 0 -0 1 181 77)"/><path d="M0.0645384 4.59733 0 0.014975 11.9826 0 11.8751 8.99998 0.0645384 4.59733Z" fill="#6A4742" fill-rule="evenodd" transform="matrix(1.00145 0 -0 1 235 79)"/><rect x="0" y="0" width="13.9797" height="4.00008" fill="#6A4742" transform="matrix(1.00145 0 -0 1 234 75)"/><path d="M0 0 16.9754 39" stroke="#7C7C7B" stroke-width="0.332851" stroke-miterlimit="8" fill="none" fill-rule="evenodd" transform="matrix(1.00145 0 -0 1 190.5 135.5)"/><path d="M0 0 10.9841 40" stroke="#7C7C7B" stroke-width="0.332851" stroke-miterlimit="8" fill="none" fill-rule="evenodd" transform="matrix(1.00145 0 -0 1 201.5 135.5)"/><path d="M0 0-10.9841-39" stroke="#7C7C7B" stroke-width="0.332851" stroke-miterlimit="8" fill="none" fill-rule="evenodd" transform="matrix(1.00145 8.75495e-08 8.74228e-08 -1 238.5 135.5)"/><path d="M0 0-17.974-40" stroke="#7C7C7B" stroke-width="0.332851" stroke-miterlimit="8" fill="none" fill-rule="evenodd" transform="matrix(1.00145 8.75495e-08 8.74228e-08 -1 250.5 135.5)"/><path d="M-17.6497-10.9428C-18.5376-11.4479-20.0431-11.065-20.213-9.84277-20.5527-7.36578-20.9696-4.88065-20.8538-2.37107-20.7534-0.00814799-17.2636 0-17.3717-2.37107-17.4335-3.82956-17.31-5.2636-17.1401-6.7058-15.704-6.10285-14.268-5.4836-13.2257-4.28584-12.9323-3.95992-12.608-3.78067-12.2915-3.73178-11.3727-3.16957-10.0216-3.15327-9.11823-3.80511-9.09507-3.81326-9.07963-3.81326-9.05646-3.81326-6.80972-4.38362-4.56297-4.6525-2.25446-4.6688 0-4.69324 0-8.37613-2.25446-8.35169-3.76001-8.33539-5.25784-8.22132-6.74023-8.00947-5.59756-10.3235-4.48577-12.662-3.4589-15.033-3.25044-15.5138-3.17324-15.9619-3.1964-16.3775-3.11147-16.573-3.0497-16.7849-3.03426-17.0374-2.54013-22.7003-2.05372-28.3632-1.56732-34.026-1.33569-36.6334-5.17292-37-5.39682-34.3927-5.72881-30.5305-6.06852-26.6602-6.40052-22.7981-6.64758-26.0654-6.90237-29.3409-7.14943-32.6083-7.35017-35.2238-11.1874-34.8897-10.9867-32.2823-10.5543-26.6276-10.1219-20.9648-9.68957-15.3101-10.7087-13.0531-11.7973-10.8368-12.9014-8.62872-14.4147-9.50871-16.1055-10.0546-17.6497-10.9428Z" fill="#7C7C7B" fill-rule="evenodd" transform="matrix(1.00145 8.75495e-08 8.74228e-08 -1 233 159)"/><path d="M0-3.00001C8.89904e-16-1.34315-1.56474 0-3.49494 0-5.42513 7.63882e-16-6.98987-1.34315-6.98987-3.00001-6.98987-4.65687-5.42513-6.00002-3.49494-6.00002-1.56474-6.00002 1.33486e-15-4.65687 0-3.00001Z" fill="#7C7C7B" fill-rule="evenodd" transform="matrix(1.00145 8.75495e-08 8.74228e-08 -1 223 155)"/><path d="M3.99421 0.510538 2.63536 0 0 6.4895 1.35886 7.00004 3.99421 0.510538Z" fill="#7C7C7B" fill-rule="evenodd" transform="matrix(1.00145 0 -0 1 186 143)"/><path d="M1.72781 0 1.45065 0.760379 0.695842 0.440892 0 2.37698 0.754812 2.69647 0.477654 3.45685 1.7396 3.99998 2.99566 0.536738 1.72781 0Z" fill="#7C7C7B" fill-rule="evenodd" transform="matrix(1.00145 0 -0 1 213 155)"/><path d="M1.06802 0 0 2.34828 1.92764 2.99996 2.99566 0.651676 1.06802 0Z" fill="#7C7C7B" fill-rule="evenodd" transform="matrix(1.00145 0 -0 1 210 155)"/><path d="M1.84515 3.99998 2.99566 0.788144 1.15051 0 0 3.20591 1.84515 3.99998Z" fill="#7C7C7B" fill-rule="evenodd" transform="matrix(1.00145 0 -0 1 208 153)"/><path d="M13.3722 10 14.9783 5.60912 1.6122 0 0 4.39088 13.3722 10Z" fill="#7C7C7B" fill-rule="evenodd" transform="matrix(1.00145 0 -0 1 194 147)"/><path d="M0 5.24556 2.20075 0 6.98987 1.75437 4.79538 6.99993 0 5.24556Z" fill="#7C7C7B" fill-rule="evenodd" transform="matrix(1.00145 0 -0 1 188 145)"/><path d="M0 0 45.9334 0.159867 43.3856 25.8718C43.6368 31.4405 39.9764 31.627 37.6798 31.7069L10.2633 32C3.33735 31.7069 2.83495 29.602 2.26079 26.2448L0 0Z" fill="#6A4742" fill-rule="evenodd" transform="matrix(1.00145 0 -0 1 197 175)"/><rect x="0" y="0" width="44.9349" height="1.00002" fill="#D68D87" transform="matrix(1.00145 0 -0 1 197 178)"/><path d="M5.20625 0 2.5618 0.0236687C3.82893 1.37279 3.00255 2.98226 2.47917 4.16569 0 8.68642 0.468287 9.75151 1.37731 10.8403 3.14028 12 5.09606 11.6923 6.6662 10.9349 7.98842 8.00002 6.80393 6.72191 5.81227 4.04735 5.56435 3.21894 4.32477 1.5148 5.20625 0Z" fill="#BBBBBB" fill-rule="evenodd" transform="matrix(1.00145 0 -0 1 200 177)"/><path d="M5.20625 0 2.5618 0.0236687C3.82893 1.37279 3.00255 2.98226 2.47917 4.16569 0 8.68642 0.468287 9.75151 1.37731 10.8403 3.14028 12 5.09606 11.6923 6.6662 10.9349 7.98842 8.00002 6.80393 6.72191 5.81227 4.04735 5.56435 3.21894 4.32477 1.5148 5.20625 0Z" fill="#BBBBBB" fill-rule="evenodd" transform="matrix(1.00145 0 -0 1 208 177)"/><path d="M5.20625 0 2.5618 0.0236687C3.82893 1.37279 3.00255 2.98226 2.47917 4.16569 0 8.68642 0.468287 9.75151 1.37731 10.8403 3.14028 12 5.09606 11.6923 6.6662 10.9349 7.98842 8.00002 6.80393 6.72191 5.81227 4.04735 5.56435 3.21894 4.32477 1.5148 5.20625 0Z" fill="#BBBBBB" fill-rule="evenodd" transform="matrix(1.00145 0 -0 1 216 177)"/><path d="M5.20625 0 2.5618 0.0236687C3.82893 1.37279 3.00255 2.98226 2.47917 4.16569 0 8.68642 0.468287 9.75151 1.37731 10.8403 3.14028 12 5.09606 11.6923 6.6662 10.9349 7.98842 8.00002 6.80393 6.72191 5.81227 4.04735 5.56435 3.21894 4.32477 1.5148 5.20625 0Z" fill="#BBBBBB" fill-rule="evenodd" transform="matrix(1.00145 0 -0 1 223 177)"/><path d="M5.20625 0 2.5618 0.0236687C3.82893 1.37279 3.00255 2.98226 2.47917 4.16569 0 8.68642 0.468287 9.75151 1.37731 10.8403 3.14028 12 5.09606 11.6923 6.6662 10.9349 7.98842 8.00002 6.80393 6.72191 5.81227 4.04735 5.56435 3.21894 4.32477 1.5148 5.20625 0Z" fill="#BBBBBB" fill-rule="evenodd" transform="matrix(1.00145 0 -0 1 231 177)"/><path d="M0.0699787 0.0780463 48.9291 0C48.6912 1.16094 48.7332 1.96091 47.0117 1.98042L1.84744 1.99994C0.699787 1.82433 0 1.32679 0.0699787 0.0780463Z" fill="#7C7C7B" fill-rule="evenodd" transform="matrix(1.00145 0 -0 1 71 135)"/><path d="M0.055919 38 0 11.0609 24.4645 0 48.9291 11.1662 48.8592 37.9065 0.055919 38Z" fill="#D0D0D0" fill-rule="evenodd" transform="matrix(1.00145 0 -0 1 71 97)"/><rect x="0" y="0" width="12.9812" height="21" fill="#BBBBBB" transform="matrix(1.00145 0 -0 1 79 114)"/><rect x="0" y="0" width="4.99276" height="6.99993" fill="#D0D0D0" transform="matrix(1.00145 0 -0 1 80 115)"/><rect x="0" y="0" width="4.99276" height="6.99993" fill="#D0D0D0" transform="matrix(1.00145 0 -0 1 86 115)"/><path d="M1.99711 0.504515C1.99711 0.774791 1.54731 1.00002 1.00755 1.00002 0.467791 1.00002 0.0179919 0.7838 0 0.513524 0 0.243248 0.431807 0.0180184 0.971565 0.00900919 1.52932 0 1.97911 0.216221 1.99711 0.486496" fill="#D0D0D0" fill-rule="evenodd" transform="matrix(1.00145 0 -0 1 90 124)"/><rect x="0" y="0" width="13.9797" height="11" fill="#7C7C7B" transform="matrix(1.00145 0 -0 1 99 114)"/><rect x="0" y="0" width="14.9783" height="0.999916" fill="#7C7C7B" transform="matrix(1.00145 0 -0 1 99 125)"/><rect x="0" y="0" width="5.99132" height="5" fill="#BBBBBB" transform="matrix(1.00145 0 -0 1 100 114)"/><rect x="0" y="0" width="4.99276" height="5" fill="#BBBBBB" transform="matrix(1.00145 0 -0 1 107 114)"/><rect x="0" y="0" width="4.99276" height="3.99998" fill="#BBBBBB" transform="matrix(1.00145 0 -0 1 107 120)"/><rect x="0" y="0" width="5.99132" height="3.99998" fill="#BBBBBB" transform="matrix(1.00145 0 -0 1 100 120)"/><path d="M48.9291 11.0355 48.8872 13 24.3458 1.7911 0.0698787 12.9422 0 10.9315 24.4715 0 48.9291 11.0355Z" fill="#BBBBBB" fill-rule="evenodd" transform="matrix(1.00145 0 -0 1 71 97)"/><path d="M50.2726 14.3013 25.9763 3.53869 0 15 0 11.5515 25.9763 0 51.8692 11.5064 51.9247 14.9436 50.2726 14.3013Z" fill="#7C7C7B" fill-rule="evenodd" transform="matrix(1.00145 0 -0 1 69 94)"/><path d="M0.0430256 3.57573 0 0.0116473 7.98842 0 7.91671 7.00004 0.0430256 3.57573Z" fill="#7C7C7B" fill-rule="evenodd" transform="matrix(1.00145 0 -0 1 106 95)"/><rect x="0" y="0" width="9.98553" height="2.99996" fill="#7C7C7B" transform="matrix(1.00145 0 -0 1 105 92)"/><path d="M0 0 10.9841 30" stroke="#7C7C7B" stroke-width="0.332851" stroke-miterlimit="8" fill="none" fill-rule="evenodd" transform="matrix(1.00145 0 -0 1 75.5001 137.5)"/><path d="M0 0 7.98842 30" stroke="#7C7C7B" stroke-width="0.332851" stroke-miterlimit="8" fill="none" fill-rule="evenodd" transform="matrix(1.00145 0 -0 1 82.5001 137.5)"/><path d="M0 0-7.98842-30" stroke="#7C7C7B" stroke-width="0.332851" stroke-miterlimit="8" fill="none" fill-rule="evenodd" transform="matrix(1.00145 8.75495e-08 8.74228e-08 -1 108.5 137.5)"/><path d="M0 0-11.9826-30" stroke="#7C7C7B" stroke-width="0.332851" stroke-miterlimit="8" fill="none" fill-rule="evenodd" transform="matrix(1.00145 8.75495e-08 8.74228e-08 -1 116.5 137.5)"/><path d="M-12.6069-7.98522C-13.2411-8.35386-14.3165-8.07441-14.4378-7.18254-14.6805-5.37501-14.9783-3.56154-14.8956-1.73023-14.8239-0.00594581-12.3312 0-12.4084-1.73023-12.4525-2.79453-12.3643-3.84099-12.2429-4.8934-11.2172-4.45341-10.1914-4.00153-9.44691-3.1275-9.23735-2.88966-9.00573-2.75886-8.77962-2.72318-8.12335-2.31292-7.15826-2.30103-6.51302-2.77669-6.49648-2.78264-6.48545-2.78264-6.4689-2.78264-4.86408-3.19885-3.25927-3.39506-1.61033-3.40695 0-3.42479 0-6.11229-1.61033-6.09446-2.68572-6.08256-3.7556-5.99932-4.81445-5.84473-3.99826-7.53334-3.20412-9.23979-2.47065-10.97-2.32175-11.3208-2.2666-11.6478-2.28314-11.9511-2.22248-12.0938-2.17836-12.2484-2.16733-12.4327-1.81438-16.565-1.46695-20.6974-1.11951-24.8297-0.954066-26.7324-3.69494-26.9999-3.85487-25.0973-4.09201-22.279-4.33466-19.4547-4.5718-16.6364-4.74827-19.0206-4.93026-21.4109-5.10674-23.7951-5.25012-25.7037-7.991-25.46-7.84761-23.5573-7.53878-19.4309-7.22995-15.2986-6.92112-11.1722-7.64908-9.52519-8.42667-7.90793-9.21529-6.29661-10.2962-6.93876-11.5039-7.33713-12.6069-7.98522Z" fill="#7C7C7B" fill-rule="evenodd" transform="matrix(1.00145 8.75495e-08 8.74228e-08 -1 104 155)"/><path d="M0-2.5C5.08516e-16-1.11929-0.894135 0-1.99711 0-3.10008 6.36566e-16-3.99421-1.11929-3.99421-2.5-3.99421-3.88071-3.10008-5-1.99711-5-0.894135-5 7.62775e-16-3.88071 0-2.5Z" fill="#7C7C7B" fill-rule="evenodd" transform="matrix(1.00145 8.75495e-08 8.74228e-08 -1 96 151)"/><path d="M2.99566 0.364668 1.97652 0 0 4.63533 1.01914 5 2.99566 0.364668Z" fill="#7C7C7B" fill-rule="evenodd" transform="matrix(1.00145 0 -0 1 71 143)"/><path d="M1.15187 0 0.967102 0.570299 0.463895 0.330678 0 1.78278 0.503208 2.02241 0.318436 2.59271 1.15974 3.00006 1.99711 0.402564 1.15187 0Z" fill="#7C7C7B" fill-rule="evenodd" transform="matrix(1.00145 0 -0 1 90 152)"/><path d="M0.712012 0 0 2.34836 1.28509 3.00006 1.99711 0.651699 0.712012 0Z" fill="#7C7C7B" fill-rule="evenodd" transform="matrix(1.00145 0 -0 1 88 151)"/><path d="M1.84515 2.99996 2.99566 0.591103 1.15051 0 0 2.40441 1.84515 2.99996Z" fill="#7C7C7B" fill-rule="evenodd" transform="matrix(1.00145 0 -0 1 86 150)"/><path d="M8.91478 7.00004 9.98553 3.92641 1.0748 0 0 3.07363 8.91478 7.00004Z" fill="#7C7C7B" fill-rule="evenodd" transform="matrix(1.00145 0 -0 1 77 146)"/><path d="M0 3.74687 1.57196 0 4.99276 1.25313 3.42527 5 0 3.74687Z" fill="#7C7C7B" fill-rule="evenodd" transform="matrix(1.00145 0 -0 1 73 144)"/><path d="M0 0 30.9551 0.1199 29.2381 19.4039C29.4074 23.5804 26.9406 23.7203 25.3929 23.7803L6.91654 24.0001C2.24908 23.7803 1.91051 22.2016 1.52357 19.6837L0 0Z" fill="#D0D0D0" fill-rule="evenodd" transform="matrix(1.00145 0 -0 1 80 167)"/><rect x="0" y="0" width="27.9595" height="0.999916" fill="#7C7C7B" transform="matrix(1.00145 0 -0 1 81 170)"/><path d="M4.55547 0 2.24158 0.0197239C3.35032 1.14398 2.62723 2.48521 2.16927 3.4714 0 7.23866 0.409751 8.12623 1.20515 9.03353 2.74774 10 4.45905 9.74359 5.83293 9.11242 6.98987 6.66666 5.95344 5.60158 5.08573 3.37278 4.86881 2.68244 3.78417 1.26233 4.55547 0Z" fill="#BBBBBB" fill-rule="evenodd" transform="matrix(1.00145 0 -0 1 79 168)"/><path d="M4.55547 0 2.24158 0.0197239C3.35032 1.14398 2.62723 2.48521 2.16927 3.4714 0 7.23866 0.409751 8.12623 1.20515 9.03353 2.74774 10 4.45905 9.74359 5.83293 9.11242 6.98987 6.66666 5.95344 5.60158 5.08573 3.37278 4.86881 2.68244 3.78417 1.26233 4.55547 0Z" fill="#BBBBBB" fill-rule="evenodd" transform="matrix(1.00145 0 -0 1 85 168)"/><path d="M4.55547 0 2.24158 0.0197239C3.35032 1.14398 2.62723 2.48521 2.16927 3.4714 0 7.23866 0.409751 8.12623 1.20515 9.03353 2.74774 10 4.45905 9.74359 5.83293 9.11242 6.98987 6.66666 5.95344 5.60158 5.08573 3.37278 4.86881 2.68244 3.78417 1.26233 4.55547 0Z" fill="#BBBBBB" fill-rule="evenodd" transform="matrix(1.00145 0 -0 1 92 168)"/><path d="M4.55547 0 2.24158 0.0197239C3.35032 1.14398 2.62723 2.48521 2.16927 3.4714 0 7.23866 0.409751 8.12623 1.20515 9.03353 2.74774 10 4.45905 9.74359 5.83293 9.11242 6.98987 6.66666 5.95344 5.60158 5.08573 3.37278 4.86881 2.68244 3.78417 1.26233 4.55547 0Z" fill="#BBBBBB" fill-rule="evenodd" transform="matrix(1.00145 0 -0 1 98 168)"/><path d="M4.55547 0 2.24158 0.0197239C3.35032 1.14398 2.62723 2.48521 2.16927 3.4714 0 7.23866 0.409751 8.12623 1.20515 9.03353 2.74774 10 4.45905 9.74359 5.83293 9.11242 6.98987 6.66666 5.95344 5.60158 5.08573 3.37278 4.86881 2.68244 3.78417 1.26233 4.55547 0Z" fill="#BBBBBB" fill-rule="evenodd" transform="matrix(1.00145 0 -0 1 104 168)"/><path d="M0.0571254 0.0390211 39.9421 0C39.7479 0.580439 39.7822 0.980405 38.3769 0.99016L1.50811 0.999916C0.571254 0.912118 0 0.663359 0.0571254 0.0390211Z" fill="#7C7C7B" fill-rule="evenodd" transform="matrix(1.00145 0 -0 1 315 120)"/><path d="M0.0456481 29.0001 0 8.44125 19.9711 0 39.9421 8.52156 39.8851 28.9287 0.0456481 29.0001Z" fill="#D0D0D0" fill-rule="evenodd" transform="matrix(1.00145 0 -0 1 315 91)"/><rect x="0" y="0" width="10.9841" height="16" fill="#BBBBBB" transform="matrix(1.00145 0 -0 1 322 104)"/><rect x="0" y="0" width="3.99421" height="5.99991" fill="#D0D0D0" transform="matrix(1.00145 0 -0 1 323 104)"/><rect x="0" y="0" width="3.99421" height="5.99991" fill="#D0D0D0" transform="matrix(1.00145 0 -0 1 328 104)"/><path d="M0.998553 0.504515C0.998553 0.774791 0.773654 1.00002 0.503774 1.00002 0.233895 1.00002 0.00899597 0.7838 0 0.513524 0 0.243248 0.215903 0.0180184 0.485782 0.00900919 0.764658 0 0.989557 0.216221 0.998553 0.486496" fill="#D0D0D0" fill-rule="evenodd" transform="matrix(1.00145 0 -0 1 331 111)"/><rect x="0" y="0" width="10.9841" height="7.99995" fill="#7C7C7B" transform="matrix(1.00145 0 -0 1 339 104)"/><rect x="0" y="0" width="11.9826" height="1.00002" fill="#7C7C7B" transform="matrix(1.00145 0 -0 1 338 112)"/><rect x="0" y="0" width="4.99276" height="3.99998" fill="#BBBBBB" transform="matrix(1.00145 0 -0 1 339 104)"/><rect x="0" y="0" width="3.99421" height="3.99998" fill="#BBBBBB" transform="matrix(1.00145 0 -0 1 345 104)"/><rect x="0" y="0" width="3.99421" height="3.99998" fill="#BBBBBB" transform="matrix(1.00145 0 -0 1 345 108)"/><rect x="0" y="0" width="4.99276" height="3.99998" fill="#BBBBBB" transform="matrix(1.00145 0 -0 1 339 108)"/><path d="M39.9421 8.48888 39.9079 10 19.8741 1.37778 0.0570439 9.95555 0 8.40889 19.9768 0 39.9421 8.48888Z" fill="#BBBBBB" fill-rule="evenodd" transform="matrix(1.00145 0 -0 1 315 91)"/><path d="M42.5384 10.4875 21.9799 2.59502 0 10.9999 0 8.47101 21.9799 0 43.8893 8.43795 43.9363 10.9586 42.5384 10.4875Z" fill="#7C7C7B" fill-rule="evenodd" transform="matrix(1.00145 0 -0 1 313 89)"/><path d="M0.0322692 2.55408 0 0.00831946 5.99132 0 5.93754 5 0.0322692 2.55408Z" fill="#7C7C7B" fill-rule="evenodd" transform="matrix(1.00145 0 -0 1 344 90)"/><rect x="0" y="0" width="7.98842" height="1.99994" fill="#7C7C7B" transform="matrix(1.00145 0 -0 1 343 88)"/><path d="M0 0 9.98553 21.9999" stroke="#7C7C7B" stroke-width="0.332851" stroke-miterlimit="8" fill="none" fill-rule="evenodd" transform="matrix(1.00145 0 -0 1 318.5 121.5)"/><path d="M0 0 5.99132 22.9999" stroke="#7C7C7B" stroke-width="0.332851" stroke-miterlimit="8" fill="none" fill-rule="evenodd" transform="matrix(1.00145 0 -0 1 325.5 121.5)"/><path d="M0 0-6.98987-21.9999" stroke="#7C7C7B" stroke-width="0.332851" stroke-miterlimit="8" fill="none" fill-rule="evenodd" transform="matrix(1.00145 8.75495e-08 8.74228e-08 -1 346.5 121.5)"/><path d="M0 0-9.98553-22.9999" stroke="#7C7C7B" stroke-width="0.332851" stroke-miterlimit="8" fill="none" fill-rule="evenodd" transform="matrix(1.00145 8.75495e-08 8.74228e-08 -1 352.5 121.5)"/><path d="M-10.0855-5.91499C-10.5929-6.18806-11.4532-5.98106-11.5503-5.32041-11.7444-3.9815-11.9826-2.63818-11.9165-1.28166-11.8591-0.00440431-9.86494 0-9.9267-1.28166-9.962-2.07003-9.89141-2.84519-9.79435-3.62475-8.97374-3.29883-8.15313-2.9641-7.55753-2.31667-7.38988-2.1405-7.20458-2.0436-7.02369-2.01718-6.49868-1.71328-5.7266-1.70447-5.21042-2.05681-5.19718-2.06122-5.18836-2.06122-5.17512-2.06122-3.89127-2.36952-2.60741-2.51486-1.28827-2.52367 0-2.53689 0-4.52764-1.28827-4.51442-2.14858-4.50561-3.00448-4.44395-3.85156-4.32944-3.1986-5.58027-2.5633-6.8443-1.97652-8.12596-1.8574-8.38581-1.81328-8.62805-1.82651-8.85267-1.77798-8.95837-1.74269-9.07289-1.73386-9.20942-1.4515-12.2704-1.17356-15.3314-0.895609-18.3924-0.763253-19.8018-2.95595-20-3.0839-18.5906-3.27361-16.503-3.46773-14.4109-3.65744-12.3233-3.79862-14.0894-3.94421-15.8599-4.08539-17.6261-4.2001-19.0399-6.3928-18.8593-6.27809-17.4499-6.03102-14.3933-5.78396-11.3323-5.53689-8.27571-6.11926-7.05571-6.74133-5.85774-7.37223-4.66417-8.23696-5.13983-9.20316-5.43492-10.0855-5.91499Z" fill="#7C7C7B" fill-rule="evenodd" transform="matrix(1.00145 8.75495e-08 8.74228e-08 -1 342 135)"/><path d="M0-1.99999C5.08516e-16-0.895425-0.894135 0-1.99711 0-3.10008 5.09251e-16-3.99421-0.895425-3.99421-1.99999-3.99421-3.10455-3.10008-3.99998-1.99711-3.99998-0.894135-3.99998 7.62775e-16-3.10455 0-1.99999Z" fill="#7C7C7B" fill-rule="evenodd" transform="matrix(1.00145 8.75495e-08 8.74228e-08 -1 336 132)"/><path d="M2.99566 0.29174 1.97652 0 0 3.70834 1.01914 4.00008 2.99566 0.29174Z" fill="#7C7C7B" fill-rule="evenodd" transform="matrix(1.00145 0 -0 1 315 126)"/><path d="M1.15187 0 0.967102 0.3802 0.463895 0.220452 0 1.18852 0.503208 1.34827 0.318436 1.72847 1.15974 2.00004 1.99711 0.268376 1.15187 0Z" fill="#7C7C7B" fill-rule="evenodd" transform="matrix(1.00145 0 -0 1 330 133)"/><path d="M0.712012 0 0 1.56558 1.28509 2.00004 1.99711 0.434466 0.712012 0Z" fill="#7C7C7B" fill-rule="evenodd" transform="matrix(1.00145 0 -0 1 329 132)"/><path d="M1.2301 3.00006 1.99711 0.591123 0.767004 0 0 2.40449 1.2301 3.00006Z" fill="#7C7C7B" fill-rule="evenodd" transform="matrix(1.00145 0 -0 1 328 131)"/><path d="M7.13183 5 7.98842 2.80456 0.859842 0 0 2.19544 7.13183 5Z" fill="#7C7C7B" fill-rule="evenodd" transform="matrix(1.00145 0 -0 1 320 128)"/><path d="M0 2.99748 1.25757 0 3.99421 1.0025 2.74021 3.99998 0 2.99748Z" fill="#7C7C7B" fill-rule="evenodd" transform="matrix(1.00145 0 -0 1 317 127)"/><path d="M0 0 24.9638 0.0899248 23.5791 14.5528C23.7156 17.6852 21.7263 17.7901 20.4781 17.8351L5.57785 18C1.81378 17.8351 1.54074 16.6511 1.22869 14.7627L0 0Z" fill="#D0D0D0" fill-rule="evenodd" transform="matrix(1.00145 0 -0 1 323 144)"/><rect x="0" y="0" width="22.9667" height="0.999916" fill="#7C7C7B" transform="matrix(1.00145 0 -0 1 324 146)"/><path d="M3.90469 0 1.92135 0.0138066C2.8717 0.800781 2.25191 1.73963 1.85937 2.42996 0 5.06701 0.351215 5.68831 1.03299 6.32341 2.35521 6.99993 3.82205 6.82045 4.99965 6.37864 5.99132 4.66662 5.10295 3.92107 4.3592 2.36092 4.17326 1.87769 3.24358 0.883621 3.90469 0Z" fill="#BBBBBB" fill-rule="evenodd" transform="matrix(1.00145 0 -0 1 321 145)"/><path d="M3.90469 0 1.92135 0.0138066C2.8717 0.800781 2.25191 1.73963 1.85937 2.42996 0 5.06701 0.351215 5.68831 1.03299 6.32341 2.35521 6.99993 3.82205 6.82045 4.99965 6.37864 5.99132 4.66662 5.10295 3.92107 4.3592 2.36092 4.17326 1.87769 3.24358 0.883621 3.90469 0Z" fill="#BBBBBB" fill-rule="evenodd" transform="matrix(1.00145 0 -0 1 327 145)"/><path d="M3.90469 0 1.92135 0.0138066C2.8717 0.800781 2.25191 1.73963 1.85937 2.42996 0 5.06701 0.351215 5.68831 1.03299 6.32341 2.35521 6.99993 3.82205 6.82045 4.99965 6.37864 5.99132 4.66662 5.10295 3.92107 4.3592 2.36092 4.17326 1.87769 3.24358 0.883621 3.90469 0Z" fill="#BBBBBB" fill-rule="evenodd" transform="matrix(1.00145 0 -0 1 332 145)"/><path d="M3.90469 0 1.92135 0.0138066C2.8717 0.800781 2.25191 1.73963 1.85937 2.42996 0 5.06701 0.351215 5.68831 1.03299 6.32341 2.35521 6.99993 3.82205 6.82045 4.99965 6.37864 5.99132 4.66662 5.10295 3.92107 4.3592 2.36092 4.17326 1.87769 3.24358 0.883621 3.90469 0Z" fill="#BBBBBB" fill-rule="evenodd" transform="matrix(1.00145 0 -0 1 337 145)"/><path d="M3.90469 0 1.92135 0.0138066C2.8717 0.800781 2.25191 1.73963 1.85937 2.42996 0 5.06701 0.351215 5.68831 1.03299 6.32341 2.35521 6.99993 3.82205 6.82045 4.99965 6.37864 5.99132 4.66662 5.10295 3.92107 4.3592 2.36092 4.17326 1.87769 3.24358 0.883621 3.90469 0Z" fill="#BBBBBB" fill-rule="evenodd" transform="matrix(1.00145 0 -0 1 343 145)"/><path d="M0.08426 0.0780463 58.9146 0C58.6281 1.16094 58.6787 1.96091 56.6059 1.98042L2.22447 1.99994C0.8426 1.82433 0 1.32679 0.08426 0.0780463Z" fill="#7C7C7B" fill-rule="evenodd" transform="matrix(1.00145 0 -0 1 417 120)"/><path d="M0.067331 42 0 12.2252 29.4573 0 58.9146 12.3415 58.8305 41.8966 0.067331 42Z" fill="#D0D0D0" fill-rule="evenodd" transform="matrix(1.00145 0 -0 1 417 78)"/><rect x="0" y="0" width="15.9768" height="24.0001" fill="#BBBBBB" transform="matrix(1.00145 0 -0 1 427 96)"/><rect x="0" y="0" width="5.99132" height="7.99995" fill="#D0D0D0" transform="matrix(1.00145 0 -0 1 428 98)"/><rect x="0" y="0" width="6.98987" height="7.99995" fill="#D0D0D0" transform="matrix(1.00145 0 -0 1 435 98)"/><path d="M1.99711 0.504515C1.99711 0.774791 1.54731 1.00002 1.00755 1.00002 0.467791 1.00002 0.0179919 0.7838 0 0.513524 0 0.243248 0.431807 0.0180184 0.971565 0.00900919 1.52932 0 1.97911 0.216221 1.99711 0.486496" fill="#D0D0D0" fill-rule="evenodd" transform="matrix(1.00145 0 -0 1 440 108)"/><rect x="0" y="0" width="15.9768" height="12" fill="#7C7C7B" transform="matrix(1.00145 0 -0 1 452 96)"/><rect x="0" y="0" width="17.974" height="1.99994" fill="#7C7C7B" transform="matrix(1.00145 0 -0 1 451 108)"/><rect x="0" y="0" width="5.99132" height="5" fill="#BBBBBB" transform="matrix(1.00145 0 -0 1 453 97)"/><rect x="0" y="0" width="6.98987" height="5" fill="#BBBBBB" transform="matrix(1.00145 0 -0 1 460 97)"/><rect x="0" y="0" width="6.98987" height="5" fill="#BBBBBB" transform="matrix(1.00145 0 -0 1 460 103)"/><rect x="0" y="0" width="6.98987" height="5" fill="#BBBBBB" transform="matrix(1.00145 0 -0 1 452 103)"/><path d="M58.9146 12.7333 58.8641 15 29.3143 2.06667 0.0841397 14.9333 0 12.6133 29.4657 0 58.9146 12.7333Z" fill="#BBBBBB" fill-rule="evenodd" transform="matrix(1.00145 0 -0 1 417 78)"/><path d="M60.9072 16.208 31.4712 4.0105 0 16.9999 0 13.0916 31.4712 0 62.8415 13.0405 62.9088 16.9361 60.9072 16.208Z" fill="#7C7C7B" fill-rule="evenodd" transform="matrix(1.00145 0 -0 1 415 74.0001)"/><path d="M0.053782 3.57573 0 0.0116473 9.98553 0 9.89589 7.00004 0.053782 3.57573Z" fill="#7C7C7B" fill-rule="evenodd" transform="matrix(1.00145 0 -0 1 459 76)"/><rect x="0" y="0" width="11.9826" height="2.99996" fill="#7C7C7B" transform="matrix(1.00145 0 -0 1 458 73)"/><path d="M0 0 14.9783 32.9999" stroke="#7C7C7B" stroke-width="0.332851" stroke-miterlimit="8" fill="none" fill-rule="evenodd" transform="matrix(1.00145 0 -0 1 421.5 122.5)"/><path d="M0 0 8.98698 32.9999" stroke="#7C7C7B" stroke-width="0.332851" stroke-miterlimit="8" fill="none" fill-rule="evenodd" transform="matrix(1.00145 0 -0 1 431.5 122.5)"/><path d="M0 0-9.98553-32.9999" stroke="#7C7C7B" stroke-width="0.332851" stroke-miterlimit="8" fill="none" fill-rule="evenodd" transform="matrix(1.00145 8.75495e-08 8.74228e-08 -1 462.5 122.5)"/><path d="M0 0-13.9797-32.9999" stroke="#7C7C7B" stroke-width="0.332851" stroke-miterlimit="8" fill="none" fill-rule="evenodd" transform="matrix(1.00145 8.75495e-08 8.74228e-08 -1 471.5 122.5)"/><path d="M-15.1283-8.87249C-15.8893-9.28209-17.1798-8.97159-17.3254-7.98062-17.6166-5.97225-17.974-3.95728-17.8747-1.92248-17.7887-0.00660647-14.7974 0-14.8901-1.92248-14.943-3.10504-14.8371-4.26778-14.6915-5.43713-13.4606-4.94825-12.2297-4.44616-11.3363-3.475-11.0848-3.21075-10.8069-3.0654-10.5355-3.02576-9.74802-2.56992-8.58991-2.5567-7.81562-3.08522-7.79577-3.09183-7.78254-3.09183-7.76268-3.09183-5.8369-3.55428-3.91112-3.77229-1.9324-3.78551 0-3.80533 0-6.79145-1.9324-6.77163-3.22287-6.75842-4.50672-6.66593-5.77734-6.49416-4.79791-8.3704-3.84494-10.2665-2.96478-12.1889-2.78609-12.5787-2.71992-12.9421-2.73977-13.279-2.66697-13.4376-2.61403-13.6093-2.6008-13.8141-2.17726-18.4056-1.76034-22.9971-1.34341-27.5886-1.14488-29.7027-4.43393-30-4.62584-27.8859-4.91041-24.7544-5.20159-21.6164-5.48616-18.4849-5.69793-21.1341-5.91632-23.7899-6.12808-26.4391-6.30015-28.5598-9.5892-28.2889-9.41713-26.1748-9.04654-21.5899-8.67594-16.9985-8.30534-12.4136-9.17889-10.5836-10.112-8.78661-11.0583-6.99625-12.3554-7.70975-13.8047-8.15239-15.1283-8.87249Z" fill="#7C7C7B" fill-rule="evenodd" transform="matrix(1.00145 8.75495e-08 8.74228e-08 -1 457 142)"/><path d="M0-3.00001C7.62775e-16-1.34315-1.3412 0-2.99566 0-4.65012 7.63882e-16-5.99132-1.34315-5.99132-3.00001-5.99132-4.65687-4.65012-6.00002-2.99566-6.00002-1.3412-6.00002 1.14416e-15-4.65687 0-3.00001Z" fill="#7C7C7B" fill-rule="evenodd" transform="matrix(1.00145 8.75495e-08 8.74228e-08 -1 448 138)"/><path d="M2.99566 0.437603 1.97652 0 0 5.56242 1.01914 6.00002 2.99566 0.437603Z" fill="#7C7C7B" fill-rule="evenodd" transform="matrix(1.00145 0 -0 1 418 129)"/><path d="M1.15187 0 0.967102 0.570279 0.463895 0.330666 0 1.78272 0.503208 2.02234 0.318436 2.59261 1.15974 2.99996 1.99711 0.40255 1.15187 0Z" fill="#7C7C7B" fill-rule="evenodd" transform="matrix(1.00145 0 -0 1 440 139)"/><path d="M0.712012 0 0 2.34828 1.28509 2.99996 1.99711 0.651676 0.712012 0Z" fill="#7C7C7B" fill-rule="evenodd" transform="matrix(1.00145 0 -0 1 438 138)"/><path d="M1.2301 3.99998 1.99711 0.788144 0.767004 0 0 3.20591 1.2301 3.99998Z" fill="#7C7C7B" fill-rule="evenodd" transform="matrix(1.00145 0 -0 1 436 137)"/><path d="M10.6977 8.00006 11.9826 4.48733 1.28976 0 0 3.51273 10.6977 8.00006Z" fill="#7C7C7B" fill-rule="evenodd" transform="matrix(1.00145 0 -0 1 424 132)"/><path d="M0 4.49618 1.57196 0 4.99276 1.50374 3.42527 5.99991 0 4.49618Z" fill="#7C7C7B" fill-rule="evenodd" transform="matrix(1.00145 0 -0 1 420 130)"/><path d="M0 0 36.9465 0.129892 34.8971 21.0208C35.0991 25.5454 32.155 25.6969 30.3076 25.7619L8.25522 26C2.68439 25.7619 2.28029 24.0516 1.81846 21.3239L0 0Z" fill="#D0D0D0" fill-rule="evenodd" transform="matrix(1.00145 0 -0 1 428 155)"/><rect x="0" y="0" width="33.9508" height="1.00002" fill="#7C7C7B" transform="matrix(1.00145 0 -0 1 429 158)"/><path d="M5.85703 0 2.88203 0.0216963C4.30755 1.25838 3.37786 2.73373 2.78906 3.81855 0 7.96254 0.526823 8.93887 1.54948 9.9369 3.53281 11 5.73307 10.718 7.49948 10.0237 8.98698 7.33334 7.65442 6.16174 6.5388 3.71006 6.25989 2.95069 4.86536 1.38856 5.85703 0Z" fill="#BBBBBB" fill-rule="evenodd" transform="matrix(1.00145 0 -0 1 426 156)"/><path d="M5.85703 0 2.88203 0.0216963C4.30755 1.25838 3.37786 2.73373 2.78906 3.81855 0 7.96254 0.526823 8.93887 1.54948 9.9369 3.53281 11 5.73307 10.718 7.49948 10.0237 8.98698 7.33334 7.65442 6.16174 6.5388 3.71006 6.25989 2.95069 4.86536 1.38856 5.85703 0Z" fill="#BBBBBB" fill-rule="evenodd" transform="matrix(1.00145 0 -0 1 434 156)"/><path d="M5.85703 0 2.88203 0.0216963C4.30755 1.25838 3.37786 2.73373 2.78906 3.81855 0 7.96254 0.526823 8.93887 1.54948 9.9369 3.53281 11 5.73307 10.718 7.49948 10.0237 8.98698 7.33334 7.65442 6.16174 6.5388 3.71006 6.25989 2.95069 4.86536 1.38856 5.85703 0Z" fill="#BBBBBB" fill-rule="evenodd" transform="matrix(1.00145 0 -0 1 442 156)"/><path d="M5.20625 0 2.5618 0.0216963C3.82893 1.25838 3.00255 2.73373 2.47917 3.81855 0 7.96254 0.468287 8.93887 1.37731 9.9369 3.14028 11 5.09606 10.718 6.6662 10.0237 7.98842 7.33334 6.80393 6.16174 5.81227 3.71006 5.56435 2.95069 4.32477 1.38856 5.20625 0Z" fill="#BBBBBB" fill-rule="evenodd" transform="matrix(1.00145 0 -0 1 450 156)"/><path d="M5.20625 0 2.5618 0.0216963C3.82893 1.25838 3.00255 2.73373 2.47917 3.81855 0 7.96254 0.468287 8.93887 1.37731 9.9369 3.14028 11 5.09606 10.718 6.6662 10.0237 7.98842 7.33334 6.80393 6.16174 5.81227 3.71006 5.56435 2.95069 4.32477 1.38856 5.20625 0Z" fill="#BBBBBB" fill-rule="evenodd" transform="matrix(1.00145 0 -0 1 458 156)"/><path d="M-5.82394-15-25.1312-15C-28.3079-15-30.9551-12.7976-30.9551-10.0595-30.9551-7.58928-28.6962-5.44643-25.7312-5.20833L-25.4842-5.11905-25.4842-4.94047C-25.4842-2.23214-22.8369 0-19.6602 0-17.4012 0-15.4599-1.07143-14.4716-2.73809L-14.3657-2.91667-14.0834-2.82738C-13.5892-2.67857-13.0245-2.64881-12.495-2.64881-10.3419-2.64881-8.43589-3.60119-7.41229-5.17857L-7.2711-5.32738-7.05932-5.32738C-3.35318-4.61309 0-7.02381 0-10.0595 0-12.7976-2.57665-15-5.82394-15Z" fill="#D0D0D0" fill-rule="evenodd" transform="matrix(1.00145 8.75495e-08 8.74228e-08 -1 384 31)"/><path d="M-5.82394-14-25.1312-14C-28.3079-14-30.9551-11.9444-30.9551-9.38887-30.9551-7.08332-28.6962-5.08332-25.7312-4.8611L-25.4842-4.77777-25.4842-4.6111C-25.4842-2.08333-22.8369 0-19.6602 0-17.4012 0-15.4599-0.999998-14.4716-2.55555L-14.3657-2.72222-14.0834-2.63888C-13.5892-2.5-13.0245-2.47222-12.495-2.47222-10.3419-2.47222-8.43589-3.3611-7.41229-4.83332L-7.2711-4.97221-7.05932-4.97221C-3.35318-4.30555 0-6.55554 0-9.38887 0-11.9444-2.57665-14-5.82394-14Z" fill="#D0D0D0" fill-rule="evenodd" transform="matrix(1.00145 8.75495e-08 8.74228e-08 -1 310 42)"/><path d="M-5.82394-15-25.1312-15C-28.3079-15-30.9551-12.7976-30.9551-10.0595-30.9551-7.58928-28.6962-5.44643-25.7312-5.20833L-25.4842-5.11905-25.4842-4.94047C-25.4842-2.23214-22.8369 0-19.6602 0-17.4012 0-15.4599-1.07143-14.4716-2.73809L-14.3657-2.91667-14.0834-2.82738C-13.5892-2.67857-13.0245-2.64881-12.495-2.64881-10.3419-2.64881-8.43589-3.60119-7.41229-5.17857L-7.2711-5.32738-7.05932-5.32738C-3.35318-4.61309 0-7.02381 0-10.0595 0-12.7976-2.57665-15-5.82394-15Z" fill="#D0D0D0" fill-rule="evenodd" transform="matrix(1.00145 8.75495e-08 8.74228e-08 -1 162 38)"/><path d="M-5.82394-15-25.1312-15C-28.3079-15-30.9551-12.7976-30.9551-10.0595-30.9551-7.58928-28.6962-5.44643-25.7312-5.20833L-25.4842-5.11905-25.4842-4.94047C-25.4842-2.23214-22.8369 0-19.6602 0-17.4012 0-15.4599-1.07143-14.4716-2.73809L-14.3657-2.91667-14.0834-2.82738C-13.5892-2.67857-13.0245-2.64881-12.495-2.64881-10.3419-2.64881-8.43589-3.60119-7.41229-5.17857L-7.2711-5.32738-7.05932-5.32738C-3.35318-4.61309 0-7.02381 0-10.0595 0-12.7976-2.57665-15-5.82394-15Z" fill="#D0D0D0" fill-rule="evenodd" transform="matrix(1.00145 8.75495e-08 8.74228e-08 -1 63 45)"/><path d="M0.00571691 35.9068 2.99566 35.9999 2.99566 0.193881C2.41825 0.116329 1.72651 0.0697973 1.18912 0.0853078 0.360165 0.108574 0.171507 0 0 0.946141L0.00571691 35.9068Z" fill="#D68D87" fill-rule="evenodd" transform="matrix(1.00145 0 -0 1 219 69.0001)"/><path d="M2.9712 40.2033C3.61575 40.2825 8.98174 39.0901 10.2499 38.8421 12.7442 38.362 15.3067 38.0296 17.8796 37.75 22.4491 37.2593 29.6072 36.8742 34.1924 37.5759 37.1689 37.6339 40.9995 38.3145 43.7087 38.8368 45.3122 39.1428 49.9393 39.9553 51.4118 40.4249L52.3969 40.789C52.4284 40.8048 52.4913 40.8364 52.5384 40.8681L53.9219 40.9683 53.5603 39.1534C53.3611 38.8421 52.1611 34.0779 51.9096 33.202 50.2223 27.2401 48.0004 21.4998 45.1445 16.0075 42.189 10.3252 35.8221 1.9152 28.271 1.17655 16.2342 0 8.23238 15.807 4.72668 25.1192 3.91444 27.2929 1.03756 35.4443 1.02184 37.3754 0.634067 37.7764 0.0733631 40.446 0 41 0.628826 40.9895 2.4367 40.6254 2.9712 40.2033Z" fill="#D68D87" fill-rule="evenodd" transform="matrix(1.00145 0 -0 1 194 29)"/><path d="M19.4134 36.0215 19.9398 37.4132C20.0597 37.9087 20.1535 38.6099 20.3567 39 21.9306 38.2356 23.0147 36.8491 24.9482 36.2112 25.3443 35.2307 32.0725 33.47 33.9018 33.2169 40.1506 32.3471 42.3134 33.6756 44.9349 33.6228 43.8873 30.6971 39.6763 23.7121 37.7897 21.2396 34.6888 17.191 31.7233 14.1598 27.9345 11.3025 21.6127 6.53162 15.8955 3.79562 8.23441 1.65004 6.70219 1.21776 1.55828 0 0 0.0632603 8.27611 6.46836 12.805 14.9031 16.4011 25.2039 16.9952 26.9014 19.5698 34.6455 19.4134 36.0215Z" fill="#D68D87" fill-rule="evenodd" transform="matrix(1.00145 0 -0 1 229 31)"/><path d="M19.9844 36.1568C20.8181 36.4301 21.5529 37.0502 22.2251 37.2237 22.4284 37.4864 22.2929 37.3182 22.5274 37.5337 22.5638 37.5705 22.7775 37.7544 22.8348 37.8017 23.1579 38.0698 23.1631 38.0855 23.5123 38.3115L24.544 39 24.7785 38.259 27.9208 27.0125C29.1923 23.2497 30.3908 20.0176 32.0688 16.5018 35.6279 9.03395 38.9265 5.16075 44.9349 0.120873 41.4747 0 32.4909 2.91146 29.5102 4.13071 18.3846 8.66082 9.30693 16.5596 3.36634 27.0598 2.47004 28.6469 0.651381 31.7686 0 33.5817 1.59458 33.6132 3.52267 33.0194 5.26837 32.9458 7.25899 32.8617 9.26003 32.9143 11.1308 33.156 12.8921 33.3872 19.6352 35.2371 19.9844 36.1568Z" fill="#D68D87" fill-rule="evenodd" transform="matrix(1.00145 0 -0 1 168 31)"/><path d="M1.17682 1.41953 1.18181 8.07192C1.19178 10.9738 0 8.80525 0.144609 10.9738L3.88451 11C3.99421 9.24525 3.53545 10.3767 3.06173 9.36049 2.20405 8.01954 3.52548 1.65524 2.46833 0.0366667L1.56078 0C1.2965 0.434763 1.17682 0.743811 1.17682 1.41953Z" fill="#D68D87" fill-rule="evenodd" transform="matrix(1.00145 0 -0 1 219 18)"/><path d="M0.00381127 26.9302 1.99711 27 1.99711 0.145412C1.61217 0.087247 1.151 0.0523482 0.792744 0.0639811 0.24011 0.0814305 0.114338 0 0 0.709609L0.00381127 26.9302Z" fill="#7C7C7B" fill-rule="evenodd" transform="matrix(1.00145 0 -0 1 95 90)"/><path d="M2.20089 30.3976C2.67833 30.4575 6.65314 29.5559 7.59249 29.3684 9.44016 29.0054 11.3383 28.7541 13.2442 28.5427 16.629 28.1717 21.9313 27.8805 25.3277 28.411 27.5325 28.4549 30.37 28.9695 32.3768 29.3644 33.5646 29.5958 36.9921 30.2101 38.0828 30.5652L38.8126 30.8404C38.8358 30.8524 38.8824 30.8763 38.9174 30.9003L39.9421 30.9761 39.6743 29.6038C39.5268 29.3684 38.6379 25.7662 38.4516 25.104 37.2017 20.5962 35.5559 16.256 33.4404 12.1032 31.2511 7.80685 26.5349 1.44808 20.9415 0.88959 12.0253 0 6.09806 11.9516 3.50124 18.9925 2.89959 20.6361 0.768565 26.7994 0.756921 28.2594 0.469679 28.5626 0.054343 30.5811 0 31 0.465797 30.992 1.80496 30.7168 2.20089 30.3976Z" fill="#7C7C7B" fill-rule="evenodd" transform="matrix(1.00145 0 -0 1 76 60)"/><path d="M14.6679 25.8615 15.0656 26.8607C15.1562 27.2165 15.2271 27.7199 15.3806 27.9999 16.5698 27.4511 17.3889 26.4557 18.8497 25.9978 19.149 25.2938 24.2326 24.0297 25.6147 23.848 30.336 23.2235 31.9701 24.1773 33.9508 24.1395 33.1593 22.0389 29.9777 17.024 28.5522 15.249 26.2093 12.3422 23.9687 10.166 21.106 8.11461 16.3296 4.68937 12.01 2.72506 6.22156 1.18464 5.06387 0.874289 1.17737 0 0 0.0454176 6.25306 4.64395 9.67491 10.6996 12.3919 18.0951 12.8408 19.3138 14.786 24.8737 14.6679 25.8615Z" fill="#7C7C7B" fill-rule="evenodd" transform="matrix(1.00145 0 -0 1 102 62)"/><path d="M15.0993 26.8858C15.7293 27.089 16.2844 27.5502 16.7923 27.6791 16.9459 27.8745 16.8435 27.7495 17.0207 27.9097 17.0482 27.937 17.2097 28.0738 17.253 28.109 17.4971 28.3083 17.501 28.32 17.7648 28.488L18.5444 29 18.7216 28.449 21.0957 20.0862C22.0564 17.2882 22.962 14.8849 24.2298 12.2706 26.9189 6.71755 29.4112 3.83748 33.9508 0.08988 31.3365 0 24.5487 2.16493 22.2966 3.07155 13.8906 6.44009 7.03191 12.3136 2.54346 20.1214 1.86625 21.3016 0.492155 23.6228 0 24.971 1.20479 24.9944 2.66157 24.5529 3.98055 24.4982 5.48457 24.4356 6.99647 24.4747 8.40994 24.6545 9.74072 24.8264 14.8355 26.202 15.0993 26.8858Z" fill="#7C7C7B" fill-rule="evenodd" transform="matrix(1.00145 0 -0 1 56 61)"/><path d="M0.882616 1.03238 0.886356 5.87044C0.893836 7.98091 0 6.40377 0.108457 7.98091L2.91338 7.99995C2.99566 6.72377 2.65159 7.54662 2.2963 6.80758 1.65304 5.83235 2.64411 1.2038 1.85125 0.0266665L1.17059 0C0.972374 0.316189 0.882616 0.540949 0.882616 1.03238Z" fill="#7C7C7B" fill-rule="evenodd" transform="matrix(1.00145 0 -0 1 95 52)"/><path d="M0.00381127 28.925 1.99711 29 1.99711 0.156182C1.61217 0.0937095 1.151 0.0562257 0.792744 0.0687203 0.24011 0.0874622 0.114338 0 0 0.762171L0.00381127 28.925Z" fill="#7C7C7B" fill-rule="evenodd" transform="matrix(1.00145 0 -0 1 446 69.0001)"/><path d="M2.476 32.3588C3.01313 32.4225 7.48478 31.4628 8.54156 31.2632 10.6202 30.8768 12.7556 30.6092 14.8997 30.3842 18.7076 29.9892 24.6727 29.6792 28.4937 30.244 30.9741 30.2907 34.1662 30.8385 36.4239 31.259 37.7601 31.5053 41.6161 32.1592 42.8432 32.5372L43.6641 32.8302C43.6903 32.8429 43.7427 32.8684 43.782 32.8939L44.9349 32.9746 44.6336 31.5138C44.4676 31.2632 43.4676 27.4286 43.258 26.7236 41.8519 21.925 40.0003 17.3047 37.6204 12.8841 35.1575 8.31053 29.8518 1.5415 23.5592 0.946984 13.5285 0 6.86032 12.7227 3.9389 20.2179 3.26204 21.9675 0.864636 28.5284 0.851536 30.0827 0.528389 30.4054 0.0611359 32.5542 0 33 0.524022 32.9916 2.03058 32.6985 2.476 32.3588Z" fill="#7C7C7B" fill-rule="evenodd" transform="matrix(1.00145 0 -0 1 425 36)"/><path d="M15.9621 29.5561 16.3949 30.6981C16.4935 31.1046 16.5706 31.6799 16.7377 32 18.0319 31.3728 18.9232 30.2352 20.513 29.7118 20.8386 28.9073 26.3707 27.4626 27.8748 27.255 33.0127 26.5413 34.791 27.6313 36.9465 27.588 36.0851 25.1874 32.6227 19.4561 31.0715 17.4274 28.5219 14.1054 26.0836 11.6183 22.9683 9.27387 17.7705 5.35929 13.0697 3.11436 6.77052 1.35388 5.51069 0.99919 1.28126 0 0 0.051906 6.8048 5.30738 10.5286 12.2282 13.4853 20.6802 13.9738 22.073 16.0907 28.4272 15.9621 29.5561Z" fill="#7C7C7B" fill-rule="evenodd" transform="matrix(1.00145 0 -0 1 454 37)"/><path d="M16.4316 29.6672C17.1171 29.8914 17.7213 30.4002 18.274 30.5425 18.4411 30.7581 18.3297 30.6202 18.5225 30.797 18.5525 30.8271 18.7282 30.9781 18.7753 31.0169 19.0409 31.2368 19.0452 31.2497 19.3323 31.4351L20.1807 32 20.3735 31.392 22.9571 22.1641C24.0026 19.0767 24.988 16.4248 26.3677 13.54 29.2941 7.41249 32.0063 4.23447 36.9465 0.0991781 34.1015 0 26.7147 2.3889 24.2639 3.3893 15.1162 7.10633 7.65237 13.5874 2.76788 22.203 2.03092 23.5052 0.53558 26.0666 0 27.5543 1.3111 27.5801 2.89642 27.0929 4.33177 27.0325 5.9685 26.9635 7.61381 27.0066 9.15199 27.205 10.6002 27.3947 16.1445 28.9126 16.4316 29.6672Z" fill="#7C7C7B" fill-rule="evenodd" transform="matrix(1.00145 0 -0 1 404 37)"/><path d="M0.882616 1.16143 0.886356 6.60427C0.893836 8.97855 0 7.20427 0.108457 8.97855L2.91338 8.99998C2.99566 7.56426 2.65159 8.48998 2.2963 7.65855 1.65304 6.56141 2.64411 1.35428 1.85125 0.0299999L1.17059 0C0.972374 0.355713 0.882616 0.60857 0.882616 1.16143Z" fill="#7C7C7B" fill-rule="evenodd" transform="matrix(1.00145 0 -0 1 446 27)"/><path d="M0.00190564 22.9405 0.998553 22.9999 0.998553 0.123869C0.806084 0.0743212 0.575502 0.0445927 0.396372 0.0545022 0.120055 0.0693665 0.0571691 0 0 0.604479L0.00190564 22.9405Z" fill="#7C7C7B" fill-rule="evenodd" transform="matrix(1.00145 0 -0 1 335 84)"/><path d="M1.81574 24.5142C2.20963 24.5625 5.48884 23.8354 6.26381 23.6842 7.78813 23.3914 9.35408 23.1888 10.9264 23.0183 13.7189 22.7191 18.0933 22.4842 20.8954 22.9121 22.7143 22.9475 25.0552 23.3625 26.7109 23.681 27.6908 23.8676 30.5185 24.363 31.4183 24.6493L32.0204 24.8713C32.0396 24.881 32.078 24.9003 32.1068 24.9196L32.9522 24.9807 32.7313 23.874C32.6096 23.6842 31.8763 20.7792 31.7225 20.2451 30.6914 16.6098 29.3336 13.1096 27.5883 9.76064 25.7822 6.29584 21.8913 1.1678 17.2767 0.717411 9.9209 0 5.0309 9.6384 2.88853 15.3166 2.39216 16.642 0.634067 21.6124 0.624459 22.7898 0.387485 23.0343 0.044833 24.6622 0 25 0.384283 24.9936 1.4891 24.7716 1.81574 24.5142Z" fill="#7C7C7B" fill-rule="evenodd" transform="matrix(1.00145 0 -0 1 319 60)"/><path d="M12.0795 22.167 12.407 23.0235C12.4816 23.3284 12.5399 23.7599 12.6664 24 13.6457 23.5296 14.3202 22.6764 15.5233 22.2838 15.7698 21.6804 19.9562 20.5969 21.0945 20.4412 24.9826 19.9059 26.3283 20.7234 27.9595 20.691 27.3077 18.8905 24.6875 14.592 23.5136 13.0705 21.5841 10.5791 19.739 8.71369 17.3814 6.95538 13.4479 4.01946 9.89056 2.33576 5.12363 1.01541 4.17025 0.749391 0.969599 0 0 0.0389294 5.14958 3.98053 7.96758 9.17112 10.2051 15.5101 10.5748 16.5547 12.1767 21.3203 12.0795 22.167Z" fill="#7C7C7B" fill-rule="evenodd" transform="matrix(1.00145 0 -0 1 341 61)"/><path d="M12.4347 22.2503C12.9535 22.4185 13.4107 22.8001 13.829 22.9069 13.9554 23.0686 13.8711 22.9651 14.017 23.0977 14.0397 23.1203 14.1727 23.2335 14.2083 23.2626 14.4094 23.4275 14.4126 23.4372 14.6298 23.5763L15.2718 24 15.4178 23.544 17.3729 16.6231C18.1641 14.3075 18.9099 12.3185 19.9539 10.155 22.1685 5.55935 24.221 3.17585 27.9595 0.0743834 25.8065 0 20.2166 1.79167 18.3619 2.54197 11.4393 5.32973 5.79098 10.1905 2.09461 16.6522 1.53691 17.6289 0.405304 19.5499 0 20.6657 0.992184 20.6851 2.19188 20.3196 3.2781 20.2743 4.51671 20.2226 5.7618 20.2549 6.92583 20.4037 8.02177 20.546 12.2175 21.6844 12.4347 22.2503Z" fill="#7C7C7B" fill-rule="evenodd" transform="matrix(1.00145 0 -0 1 303 61)"/><path d="M0.882616 0.903325 0.886356 5.13662C0.893836 6.98327 0 5.60328 0.108457 6.98327L2.91338 6.99993C2.99566 5.88328 2.65159 6.60327 2.2963 5.95661 1.65304 5.10329 2.64411 1.05332 1.85125 0.0233331L1.17059 0C0.972374 0.276664 0.882616 0.473329 0.882616 0.903325Z" fill="#7C7C7B" fill-rule="evenodd" transform="matrix(1.00145 0 -0 1 334 53)"/></g></svg>